<mxfile host="app.diagrams.net" modified="2022-05-13T14:42:36.117Z" agent="5.0 (Macintosh; Intel Mac OS X 10_15_7) AppleWebKit/537.36 (KHTML, like Gecko) Chrome/100.0.4896.127 Safari/537.36" etag="tIDdJtiJPBmP47ialU0C" version="18.0.3" type="github">
  <diagram id="vPnPxJsKkhuTtD2iRJGy" name="Page-1">
    <mxGraphModel dx="1113" dy="4060" grid="0" gridSize="35" guides="1" tooltips="1" connect="1" arrows="1" fold="1" page="1" pageScale="1" pageWidth="4681" pageHeight="3300" math="0" shadow="0">
      <root>
        <mxCell id="0" />
        <mxCell id="1" parent="0" />
        <mxCell id="v9qTnyX4O629vSzhhKhX-34" style="edgeStyle=orthogonalEdgeStyle;rounded=0;orthogonalLoop=1;jettySize=auto;html=1;exitX=0.5;exitY=1;exitDx=0;exitDy=0;fontColor=#000000;" parent="1" source="v9qTnyX4O629vSzhhKhX-1" target="v9qTnyX4O629vSzhhKhX-18" edge="1">
          <mxGeometry relative="1" as="geometry" />
        </mxCell>
        <mxCell id="v9qTnyX4O629vSzhhKhX-1" value="Perencanaan Pelabuhan" style="rounded=0;whiteSpace=wrap;html=1;" parent="1" vertex="1">
          <mxGeometry x="110" y="-3247" width="120" height="60" as="geometry" />
        </mxCell>
        <mxCell id="v9qTnyX4O629vSzhhKhX-49" style="edgeStyle=orthogonalEdgeStyle;rounded=0;orthogonalLoop=1;jettySize=auto;html=1;entryX=0;entryY=0.5;entryDx=0;entryDy=0;fontColor=#000000;" parent="1" source="v9qTnyX4O629vSzhhKhX-2" target="v9qTnyX4O629vSzhhKhX-8" edge="1">
          <mxGeometry relative="1" as="geometry" />
        </mxCell>
        <mxCell id="v9qTnyX4O629vSzhhKhX-61" style="edgeStyle=orthogonalEdgeStyle;rounded=0;orthogonalLoop=1;jettySize=auto;html=1;exitX=1;exitY=0.5;exitDx=0;exitDy=0;entryX=0;entryY=0.5;entryDx=0;entryDy=0;fontColor=#000000;" parent="1" source="v9qTnyX4O629vSzhhKhX-2" target="v9qTnyX4O629vSzhhKhX-9" edge="1">
          <mxGeometry relative="1" as="geometry" />
        </mxCell>
        <mxCell id="v9qTnyX4O629vSzhhKhX-71" style="edgeStyle=orthogonalEdgeStyle;rounded=0;orthogonalLoop=1;jettySize=auto;html=1;exitX=1;exitY=0.5;exitDx=0;exitDy=0;entryX=0;entryY=0.5;entryDx=0;entryDy=0;fontColor=#000000;" parent="1" source="v9qTnyX4O629vSzhhKhX-2" target="v9qTnyX4O629vSzhhKhX-10" edge="1">
          <mxGeometry relative="1" as="geometry" />
        </mxCell>
        <mxCell id="v9qTnyX4O629vSzhhKhX-82" style="edgeStyle=orthogonalEdgeStyle;rounded=0;orthogonalLoop=1;jettySize=auto;html=1;exitX=1;exitY=0.5;exitDx=0;exitDy=0;entryX=0;entryY=0.5;entryDx=0;entryDy=0;fontColor=#000000;" parent="1" source="v9qTnyX4O629vSzhhKhX-2" target="v9qTnyX4O629vSzhhKhX-11" edge="1">
          <mxGeometry relative="1" as="geometry" />
        </mxCell>
        <mxCell id="v9qTnyX4O629vSzhhKhX-2" value="Fasilitas Perairan" style="rounded=0;whiteSpace=wrap;html=1;" parent="1" vertex="1">
          <mxGeometry x="977" y="-2820" width="120" height="60" as="geometry" />
        </mxCell>
        <mxCell id="Ws4u6goq_V8mnw8VZYxV-10" style="edgeStyle=orthogonalEdgeStyle;rounded=0;orthogonalLoop=1;jettySize=auto;html=1;exitX=1;exitY=0.5;exitDx=0;exitDy=0;entryX=0;entryY=0.5;entryDx=0;entryDy=0;strokeColor=#000000;strokeWidth=1;" edge="1" parent="1" source="v9qTnyX4O629vSzhhKhX-3" target="Ws4u6goq_V8mnw8VZYxV-9">
          <mxGeometry relative="1" as="geometry" />
        </mxCell>
        <mxCell id="Ws4u6goq_V8mnw8VZYxV-40" style="edgeStyle=orthogonalEdgeStyle;rounded=0;orthogonalLoop=1;jettySize=auto;html=1;exitX=1;exitY=0.5;exitDx=0;exitDy=0;entryX=0;entryY=0.5;entryDx=0;entryDy=0;strokeColor=#000000;strokeWidth=1;" edge="1" parent="1" source="v9qTnyX4O629vSzhhKhX-3" target="Ws4u6goq_V8mnw8VZYxV-39">
          <mxGeometry relative="1" as="geometry" />
        </mxCell>
        <mxCell id="v9qTnyX4O629vSzhhKhX-3" value="Fasilitas Daratan" style="rounded=0;whiteSpace=wrap;html=1;" parent="1" vertex="1">
          <mxGeometry x="977" y="-1684" width="120" height="60" as="geometry" />
        </mxCell>
        <mxCell id="v9qTnyX4O629vSzhhKhX-55" style="edgeStyle=orthogonalEdgeStyle;rounded=0;orthogonalLoop=1;jettySize=auto;html=1;exitX=1;exitY=0.5;exitDx=0;exitDy=0;entryX=0;entryY=0.5;entryDx=0;entryDy=0;fontColor=#000000;" parent="1" source="v9qTnyX4O629vSzhhKhX-8" target="v9qTnyX4O629vSzhhKhX-51" edge="1">
          <mxGeometry relative="1" as="geometry" />
        </mxCell>
        <mxCell id="v9qTnyX4O629vSzhhKhX-8" value="Alur Pelayaran" style="rounded=0;whiteSpace=wrap;html=1;" parent="1" vertex="1">
          <mxGeometry x="1167" y="-2765" width="120" height="60" as="geometry" />
        </mxCell>
        <mxCell id="v9qTnyX4O629vSzhhKhX-65" style="edgeStyle=orthogonalEdgeStyle;rounded=0;orthogonalLoop=1;jettySize=auto;html=1;exitX=1;exitY=0.5;exitDx=0;exitDy=0;entryX=0;entryY=0.5;entryDx=0;entryDy=0;fontColor=#000000;" parent="1" source="v9qTnyX4O629vSzhhKhX-9" target="v9qTnyX4O629vSzhhKhX-62" edge="1">
          <mxGeometry relative="1" as="geometry" />
        </mxCell>
        <mxCell id="v9qTnyX4O629vSzhhKhX-9" value="Area Penjangkaran" style="rounded=0;whiteSpace=wrap;html=1;" parent="1" vertex="1">
          <mxGeometry x="1167" y="-2440" width="120" height="60" as="geometry" />
        </mxCell>
        <mxCell id="v9qTnyX4O629vSzhhKhX-78" style="edgeStyle=orthogonalEdgeStyle;rounded=0;orthogonalLoop=1;jettySize=auto;html=1;exitX=1;exitY=0.5;exitDx=0;exitDy=0;entryX=0;entryY=0.5;entryDx=0;entryDy=0;fontColor=#000000;" parent="1" source="v9qTnyX4O629vSzhhKhX-10" target="v9qTnyX4O629vSzhhKhX-77" edge="1">
          <mxGeometry relative="1" as="geometry" />
        </mxCell>
        <mxCell id="v9qTnyX4O629vSzhhKhX-10" value="Kolam Putar" style="rounded=0;whiteSpace=wrap;html=1;" parent="1" vertex="1">
          <mxGeometry x="1167" y="-2187.5" width="120" height="60" as="geometry" />
        </mxCell>
        <mxCell id="v9qTnyX4O629vSzhhKhX-85" style="edgeStyle=orthogonalEdgeStyle;rounded=0;orthogonalLoop=1;jettySize=auto;html=1;exitX=1;exitY=0.5;exitDx=0;exitDy=0;entryX=0;entryY=0.5;entryDx=0;entryDy=0;fontColor=#000000;" parent="1" source="v9qTnyX4O629vSzhhKhX-11" target="v9qTnyX4O629vSzhhKhX-83" edge="1">
          <mxGeometry relative="1" as="geometry" />
        </mxCell>
        <mxCell id="v9qTnyX4O629vSzhhKhX-11" value="Kolam Dermaga" style="rounded=0;whiteSpace=wrap;html=1;" parent="1" vertex="1">
          <mxGeometry x="1167" y="-1935" width="120" height="60" as="geometry" />
        </mxCell>
        <mxCell id="v9qTnyX4O629vSzhhKhX-36" style="edgeStyle=orthogonalEdgeStyle;rounded=0;orthogonalLoop=1;jettySize=auto;html=1;entryX=0;entryY=0.5;entryDx=0;entryDy=0;fontColor=#000000;" parent="1" source="v9qTnyX4O629vSzhhKhX-18" target="v9qTnyX4O629vSzhhKhX-24" edge="1">
          <mxGeometry relative="1" as="geometry" />
        </mxCell>
        <mxCell id="v9qTnyX4O629vSzhhKhX-37" style="edgeStyle=orthogonalEdgeStyle;rounded=0;orthogonalLoop=1;jettySize=auto;html=1;exitX=1;exitY=0.5;exitDx=0;exitDy=0;entryX=0;entryY=0.5;entryDx=0;entryDy=0;fontColor=#000000;" parent="1" source="v9qTnyX4O629vSzhhKhX-18" target="v9qTnyX4O629vSzhhKhX-20" edge="1">
          <mxGeometry relative="1" as="geometry" />
        </mxCell>
        <mxCell id="v9qTnyX4O629vSzhhKhX-38" style="edgeStyle=orthogonalEdgeStyle;rounded=0;orthogonalLoop=1;jettySize=auto;html=1;exitX=1;exitY=0.5;exitDx=0;exitDy=0;entryX=0;entryY=0.5;entryDx=0;entryDy=0;fontColor=#000000;" parent="1" source="v9qTnyX4O629vSzhhKhX-18" target="v9qTnyX4O629vSzhhKhX-21" edge="1">
          <mxGeometry relative="1" as="geometry" />
        </mxCell>
        <mxCell id="v9qTnyX4O629vSzhhKhX-39" style="edgeStyle=orthogonalEdgeStyle;rounded=0;orthogonalLoop=1;jettySize=auto;html=1;entryX=0;entryY=0.5;entryDx=0;entryDy=0;fontColor=#000000;exitX=1;exitY=0.5;exitDx=0;exitDy=0;" parent="1" source="v9qTnyX4O629vSzhhKhX-18" target="v9qTnyX4O629vSzhhKhX-22" edge="1">
          <mxGeometry relative="1" as="geometry">
            <mxPoint x="301" y="-2939" as="sourcePoint" />
          </mxGeometry>
        </mxCell>
        <mxCell id="v9qTnyX4O629vSzhhKhX-18" value="Fungsi Pelabuhan" style="rounded=0;whiteSpace=wrap;html=1;" parent="1" vertex="1">
          <mxGeometry x="110" y="-3157" width="120" height="60" as="geometry" />
        </mxCell>
        <mxCell id="v9qTnyX4O629vSzhhKhX-20" value="Jenis Muatan" style="rounded=0;whiteSpace=wrap;html=1;" parent="1" vertex="1">
          <mxGeometry x="377" y="-2795" width="120" height="60" as="geometry" />
        </mxCell>
        <mxCell id="v9qTnyX4O629vSzhhKhX-44" style="edgeStyle=orthogonalEdgeStyle;rounded=0;orthogonalLoop=1;jettySize=auto;html=1;fontColor=#000000;entryX=0;entryY=0.5;entryDx=0;entryDy=0;" parent="1" source="v9qTnyX4O629vSzhhKhX-21" target="v9qTnyX4O629vSzhhKhX-40" edge="1">
          <mxGeometry relative="1" as="geometry">
            <mxPoint x="607" y="-2735" as="targetPoint" />
          </mxGeometry>
        </mxCell>
        <mxCell id="v9qTnyX4O629vSzhhKhX-21" value="Jenis Kapal" style="rounded=0;whiteSpace=wrap;html=1;" parent="1" vertex="1">
          <mxGeometry x="377" y="-2705" width="120" height="60" as="geometry" />
        </mxCell>
        <mxCell id="v9qTnyX4O629vSzhhKhX-45" style="edgeStyle=orthogonalEdgeStyle;rounded=0;orthogonalLoop=1;jettySize=auto;html=1;entryX=0;entryY=0.5;entryDx=0;entryDy=0;fontColor=#000000;" parent="1" source="v9qTnyX4O629vSzhhKhX-22" target="v9qTnyX4O629vSzhhKhX-43" edge="1">
          <mxGeometry relative="1" as="geometry" />
        </mxCell>
        <mxCell id="v9qTnyX4O629vSzhhKhX-22" value="&lt;i&gt;Cargo Handling System&lt;/i&gt;" style="rounded=0;whiteSpace=wrap;html=1;align=center;" parent="1" vertex="1">
          <mxGeometry x="377" y="-2512.5" width="120" height="60" as="geometry" />
        </mxCell>
        <mxCell id="v9qTnyX4O629vSzhhKhX-46" style="edgeStyle=orthogonalEdgeStyle;rounded=0;orthogonalLoop=1;jettySize=auto;html=1;exitX=1;exitY=0.5;exitDx=0;exitDy=0;fontColor=#000000;entryX=0;entryY=0.5;entryDx=0;entryDy=0;" parent="1" source="v9qTnyX4O629vSzhhKhX-24" target="v9qTnyX4O629vSzhhKhX-99" edge="1">
          <mxGeometry relative="1" as="geometry" />
        </mxCell>
        <mxCell id="v9qTnyX4O629vSzhhKhX-100" style="edgeStyle=orthogonalEdgeStyle;rounded=0;orthogonalLoop=1;jettySize=auto;html=1;exitX=1;exitY=0.5;exitDx=0;exitDy=0;entryX=0;entryY=0.5;entryDx=0;entryDy=0;fontColor=#000000;" parent="1" source="v9qTnyX4O629vSzhhKhX-24" target="v9qTnyX4O629vSzhhKhX-31" edge="1">
          <mxGeometry relative="1" as="geometry" />
        </mxCell>
        <mxCell id="v9qTnyX4O629vSzhhKhX-24" value="&lt;i&gt;Dermaga&lt;/i&gt;" style="rounded=0;whiteSpace=wrap;html=1;" parent="1" vertex="1">
          <mxGeometry x="375" y="-3097" width="120" height="60" as="geometry" />
        </mxCell>
        <mxCell id="v9qTnyX4O629vSzhhKhX-26" value="Melayani distribusi pupuk urea (&lt;i&gt;dry bulk)&lt;/i&gt;&amp;nbsp;dalam bentuk kantong atau &lt;font color=&quot;#ff3333&quot;&gt;bal&lt;/font&gt;" style="text;html=1;strokeColor=none;fillColor=none;align=left;verticalAlign=middle;whiteSpace=wrap;rounded=0;" parent="1" vertex="1">
          <mxGeometry x="115" y="-3086" width="157" height="48" as="geometry" />
        </mxCell>
        <mxCell id="v9qTnyX4O629vSzhhKhX-29" value="Pupuk urea kantong" style="text;html=1;strokeColor=none;fillColor=none;align=left;verticalAlign=middle;whiteSpace=wrap;rounded=0;" parent="1" vertex="1">
          <mxGeometry x="377" y="-2735" width="280" height="30" as="geometry" />
        </mxCell>
        <mxCell id="v9qTnyX4O629vSzhhKhX-30" value="&lt;i&gt;General Cargo 6000DWT&lt;/i&gt;" style="text;html=1;strokeColor=none;fillColor=none;align=left;verticalAlign=middle;whiteSpace=wrap;rounded=0;" parent="1" vertex="1">
          <mxGeometry x="377" y="-2645" width="280" height="30" as="geometry" />
        </mxCell>
        <mxCell id="v9qTnyX4O629vSzhhKhX-47" style="edgeStyle=orthogonalEdgeStyle;rounded=0;orthogonalLoop=1;jettySize=auto;html=1;exitX=1;exitY=0.5;exitDx=0;exitDy=0;entryX=0;entryY=0.5;entryDx=0;entryDy=0;fontColor=#000000;" parent="1" source="v9qTnyX4O629vSzhhKhX-31" target="v9qTnyX4O629vSzhhKhX-2" edge="1">
          <mxGeometry relative="1" as="geometry">
            <Array as="points">
              <mxPoint x="922" y="-2850" />
              <mxPoint x="922" y="-2790" />
            </Array>
          </mxGeometry>
        </mxCell>
        <mxCell id="v9qTnyX4O629vSzhhKhX-48" style="edgeStyle=orthogonalEdgeStyle;rounded=0;orthogonalLoop=1;jettySize=auto;html=1;exitX=1;exitY=0.5;exitDx=0;exitDy=0;entryX=0;entryY=0.5;entryDx=0;entryDy=0;fontColor=#000000;" parent="1" source="v9qTnyX4O629vSzhhKhX-31" target="v9qTnyX4O629vSzhhKhX-3" edge="1">
          <mxGeometry relative="1" as="geometry">
            <Array as="points">
              <mxPoint x="922" y="-2850" />
              <mxPoint x="922" y="-1654" />
            </Array>
          </mxGeometry>
        </mxCell>
        <mxCell id="v9qTnyX4O629vSzhhKhX-31" value="Open-Wharf Type" style="rounded=0;whiteSpace=wrap;html=1;fontColor=#000000;" parent="1" vertex="1">
          <mxGeometry x="617" y="-2880" width="120" height="60" as="geometry" />
        </mxCell>
        <mxCell id="v9qTnyX4O629vSzhhKhX-96" style="edgeStyle=orthogonalEdgeStyle;orthogonalLoop=1;jettySize=auto;html=1;entryX=0.5;entryY=1;entryDx=0;entryDy=0;fontColor=#000000;verticalAlign=middle;horizontal=1;rounded=1;dashed=1;fillColor=#d5e8d4;strokeColor=#80FF00;strokeWidth=2;" parent="1" source="v9qTnyX4O629vSzhhKhX-40" target="v9qTnyX4O629vSzhhKhX-2" edge="1">
          <mxGeometry relative="1" as="geometry">
            <Array as="points">
              <mxPoint x="1037" y="-2572" />
            </Array>
          </mxGeometry>
        </mxCell>
        <mxCell id="Ws4u6goq_V8mnw8VZYxV-20" style="edgeStyle=orthogonalEdgeStyle;rounded=1;orthogonalLoop=1;jettySize=auto;html=1;exitX=1;exitY=0.5;exitDx=0;exitDy=0;strokeColor=#80FF00;strokeWidth=2;dashed=1;" edge="1" parent="1" source="v9qTnyX4O629vSzhhKhX-40" target="Ws4u6goq_V8mnw8VZYxV-9">
          <mxGeometry relative="1" as="geometry">
            <mxPoint x="1014.5454545454543" y="-1731.3636363636365" as="targetPoint" />
            <Array as="points">
              <mxPoint x="1036" y="-2572" />
              <mxPoint x="1036" y="-1731" />
              <mxPoint x="1227" y="-1731" />
            </Array>
          </mxGeometry>
        </mxCell>
        <mxCell id="v9qTnyX4O629vSzhhKhX-40" value="&lt;ol&gt;&lt;li&gt;&lt;i&gt;Displacement Tonnage&lt;/i&gt;&lt;/li&gt;&lt;li&gt;LOA&lt;/li&gt;&lt;li&gt;LBP&lt;/li&gt;&lt;li&gt;Breadth&lt;/li&gt;&lt;li&gt;Draft&lt;/li&gt;&lt;li&gt;Kecepatan Berlabuh Kapal&lt;/li&gt;&lt;/ol&gt;" style="shape=parallelogram;perimeter=parallelogramPerimeter;whiteSpace=wrap;html=1;fixedSize=1;fontColor=#000000;align=left;" parent="1" vertex="1">
          <mxGeometry x="617" y="-2645" width="255" height="145" as="geometry" />
        </mxCell>
        <mxCell id="v9qTnyX4O629vSzhhKhX-43" value="&lt;ol&gt;&lt;li&gt;&lt;i&gt;Metode bongkar - muat&lt;/i&gt;&lt;/li&gt;&lt;li&gt;&lt;i&gt;Peralatan bongkar - muat&lt;/i&gt;&lt;/li&gt;&lt;li&gt;&lt;i&gt;Pola lalu lintas muatan dan kapal&lt;/i&gt;&lt;/li&gt;&lt;li&gt;&lt;i&gt;Bertihing Time&lt;/i&gt;&lt;/li&gt;&lt;li&gt;&lt;i&gt;Berth Throughput&lt;/i&gt;&lt;/li&gt;&lt;li&gt;&lt;i&gt;Bert Occupancy Ratio&lt;/i&gt;&lt;/li&gt;&lt;/ol&gt;" style="shape=parallelogram;perimeter=parallelogramPerimeter;whiteSpace=wrap;html=1;fixedSize=1;fontColor=#000000;align=left;" parent="1" vertex="1">
          <mxGeometry x="617" y="-2452.5" width="255" height="145" as="geometry" />
        </mxCell>
        <mxCell id="v9qTnyX4O629vSzhhKhX-57" style="edgeStyle=orthogonalEdgeStyle;rounded=0;orthogonalLoop=1;jettySize=auto;html=1;entryX=0;entryY=0.5;entryDx=0;entryDy=0;fontColor=#000000;" parent="1" source="v9qTnyX4O629vSzhhKhX-50" target="v9qTnyX4O629vSzhhKhX-52" edge="1">
          <mxGeometry relative="1" as="geometry" />
        </mxCell>
        <mxCell id="v9qTnyX4O629vSzhhKhX-58" style="edgeStyle=orthogonalEdgeStyle;rounded=0;orthogonalLoop=1;jettySize=auto;html=1;exitX=1;exitY=0.5;exitDx=0;exitDy=0;entryX=0;entryY=0.5;entryDx=0;entryDy=0;fontColor=#000000;" parent="1" source="v9qTnyX4O629vSzhhKhX-50" target="v9qTnyX4O629vSzhhKhX-53" edge="1">
          <mxGeometry relative="1" as="geometry" />
        </mxCell>
        <mxCell id="v9qTnyX4O629vSzhhKhX-60" style="edgeStyle=orthogonalEdgeStyle;rounded=0;orthogonalLoop=1;jettySize=auto;html=1;exitX=1;exitY=0.5;exitDx=0;exitDy=0;entryX=0;entryY=0.5;entryDx=0;entryDy=0;fontColor=#000000;" parent="1" source="v9qTnyX4O629vSzhhKhX-50" target="v9qTnyX4O629vSzhhKhX-59" edge="1">
          <mxGeometry relative="1" as="geometry" />
        </mxCell>
        <mxCell id="v9qTnyX4O629vSzhhKhX-50" value="Aligenment" style="rounded=0;whiteSpace=wrap;html=1;" parent="1" vertex="1">
          <mxGeometry x="1517" y="-2705" width="120" height="60" as="geometry" />
        </mxCell>
        <mxCell id="v9qTnyX4O629vSzhhKhX-56" style="edgeStyle=orthogonalEdgeStyle;rounded=0;orthogonalLoop=1;jettySize=auto;html=1;exitX=1;exitY=0.5;exitDx=0;exitDy=0;entryX=0;entryY=0.5;entryDx=0;entryDy=0;fontColor=#000000;" parent="1" source="v9qTnyX4O629vSzhhKhX-51" target="v9qTnyX4O629vSzhhKhX-50" edge="1">
          <mxGeometry relative="1" as="geometry" />
        </mxCell>
        <mxCell id="v9qTnyX4O629vSzhhKhX-51" value="Sistem lalu lintas kapal" style="rounded=0;whiteSpace=wrap;html=1;" parent="1" vertex="1">
          <mxGeometry x="1342" y="-2705" width="120" height="60" as="geometry" />
        </mxCell>
        <mxCell id="v9qTnyX4O629vSzhhKhX-52" value="Panjang Alur" style="rounded=0;whiteSpace=wrap;html=1;" parent="1" vertex="1">
          <mxGeometry x="1692" y="-2645" width="120" height="60" as="geometry" />
        </mxCell>
        <mxCell id="v9qTnyX4O629vSzhhKhX-53" value="Lebar Alur" style="rounded=0;whiteSpace=wrap;html=1;" parent="1" vertex="1">
          <mxGeometry x="1692" y="-2572" width="120" height="60" as="geometry" />
        </mxCell>
        <mxCell id="v9qTnyX4O629vSzhhKhX-59" value="Kedalaman Alur" style="rounded=0;whiteSpace=wrap;html=1;" parent="1" vertex="1">
          <mxGeometry x="1692" y="-2502" width="120" height="60" as="geometry" />
        </mxCell>
        <mxCell id="v9qTnyX4O629vSzhhKhX-64" style="edgeStyle=orthogonalEdgeStyle;rounded=0;orthogonalLoop=1;jettySize=auto;html=1;exitX=1;exitY=0.5;exitDx=0;exitDy=0;entryX=0;entryY=0.5;entryDx=0;entryDy=0;fontColor=#000000;" parent="1" source="v9qTnyX4O629vSzhhKhX-62" target="v9qTnyX4O629vSzhhKhX-63" edge="1">
          <mxGeometry relative="1" as="geometry" />
        </mxCell>
        <mxCell id="v9qTnyX4O629vSzhhKhX-62" value="Lokasi dan kondisi perairan Area Penjangkaran" style="rounded=0;whiteSpace=wrap;html=1;align=left;" parent="1" vertex="1">
          <mxGeometry x="1342" y="-2380" width="120" height="60" as="geometry" />
        </mxCell>
        <mxCell id="v9qTnyX4O629vSzhhKhX-69" style="edgeStyle=orthogonalEdgeStyle;rounded=0;orthogonalLoop=1;jettySize=auto;html=1;exitX=1;exitY=0.5;exitDx=0;exitDy=0;entryX=0;entryY=0.5;entryDx=0;entryDy=0;fontColor=#000000;" parent="1" source="v9qTnyX4O629vSzhhKhX-63" target="v9qTnyX4O629vSzhhKhX-66" edge="1">
          <mxGeometry relative="1" as="geometry" />
        </mxCell>
        <mxCell id="v9qTnyX4O629vSzhhKhX-70" style="edgeStyle=orthogonalEdgeStyle;rounded=0;orthogonalLoop=1;jettySize=auto;html=1;exitX=1;exitY=0.5;exitDx=0;exitDy=0;entryX=0;entryY=0.5;entryDx=0;entryDy=0;fontColor=#000000;" parent="1" source="v9qTnyX4O629vSzhhKhX-63" target="v9qTnyX4O629vSzhhKhX-67" edge="1">
          <mxGeometry relative="1" as="geometry" />
        </mxCell>
        <mxCell id="v9qTnyX4O629vSzhhKhX-63" value="Sistem &lt;i&gt;mooring&lt;/i&gt;" style="rounded=0;whiteSpace=wrap;html=1;" parent="1" vertex="1">
          <mxGeometry x="1517" y="-2380" width="120" height="60" as="geometry" />
        </mxCell>
        <mxCell id="v9qTnyX4O629vSzhhKhX-66" value="Area Penjangkaran" style="rounded=0;whiteSpace=wrap;html=1;" parent="1" vertex="1">
          <mxGeometry x="1692" y="-2320" width="120" height="60" as="geometry" />
        </mxCell>
        <mxCell id="v9qTnyX4O629vSzhhKhX-67" value="Kedalaman Penjangkaran" style="rounded=0;whiteSpace=wrap;html=1;" parent="1" vertex="1">
          <mxGeometry x="1692" y="-2247.5" width="120" height="60" as="geometry" />
        </mxCell>
        <mxCell id="v9qTnyX4O629vSzhhKhX-68" value="Arah arus dan angin domian" style="text;html=1;strokeColor=none;fillColor=none;align=left;verticalAlign=middle;whiteSpace=wrap;rounded=0;fontColor=#000000;" parent="1" vertex="1">
          <mxGeometry x="1342" y="-2320" width="175" height="30" as="geometry" />
        </mxCell>
        <mxCell id="v9qTnyX4O629vSzhhKhX-73" value="Di bantu oleh kapal pandu dan tunda (&lt;i&gt;tugboats)&lt;/i&gt;" style="text;html=1;strokeColor=none;fillColor=none;align=left;verticalAlign=middle;whiteSpace=wrap;rounded=0;fontColor=#000000;" parent="1" vertex="1">
          <mxGeometry x="1517" y="-2067.5" width="140" height="62.5" as="geometry" />
        </mxCell>
        <mxCell id="v9qTnyX4O629vSzhhKhX-80" style="edgeStyle=orthogonalEdgeStyle;rounded=0;orthogonalLoop=1;jettySize=auto;html=1;exitX=1;exitY=0.5;exitDx=0;exitDy=0;entryX=0;entryY=0.5;entryDx=0;entryDy=0;fontColor=#000000;" parent="1" source="v9qTnyX4O629vSzhhKhX-74" target="v9qTnyX4O629vSzhhKhX-76" edge="1">
          <mxGeometry relative="1" as="geometry" />
        </mxCell>
        <mxCell id="v9qTnyX4O629vSzhhKhX-81" style="edgeStyle=orthogonalEdgeStyle;rounded=0;orthogonalLoop=1;jettySize=auto;html=1;exitX=1;exitY=0.5;exitDx=0;exitDy=0;entryX=0;entryY=0.5;entryDx=0;entryDy=0;fontColor=#000000;" parent="1" source="v9qTnyX4O629vSzhhKhX-74" target="v9qTnyX4O629vSzhhKhX-75" edge="1">
          <mxGeometry relative="1" as="geometry" />
        </mxCell>
        <mxCell id="v9qTnyX4O629vSzhhKhX-74" value="Sistem Putar Kapal" style="rounded=0;whiteSpace=wrap;html=1;" parent="1" vertex="1">
          <mxGeometry x="1517" y="-2127.5" width="120" height="60" as="geometry" />
        </mxCell>
        <mxCell id="v9qTnyX4O629vSzhhKhX-75" value="Kedalaman Kolam Putar" style="rounded=0;whiteSpace=wrap;html=1;" parent="1" vertex="1">
          <mxGeometry x="1692" y="-1995" width="120" height="60" as="geometry" />
        </mxCell>
        <mxCell id="v9qTnyX4O629vSzhhKhX-76" value="Area Kolam Putar" style="rounded=0;whiteSpace=wrap;html=1;" parent="1" vertex="1">
          <mxGeometry x="1692" y="-2067.5" width="120" height="60" as="geometry" />
        </mxCell>
        <mxCell id="v9qTnyX4O629vSzhhKhX-79" style="edgeStyle=orthogonalEdgeStyle;rounded=0;orthogonalLoop=1;jettySize=auto;html=1;exitX=1;exitY=0.5;exitDx=0;exitDy=0;fontColor=#000000;" parent="1" source="v9qTnyX4O629vSzhhKhX-77" target="v9qTnyX4O629vSzhhKhX-74" edge="1">
          <mxGeometry relative="1" as="geometry" />
        </mxCell>
        <mxCell id="v9qTnyX4O629vSzhhKhX-77" value="Lokasi dan Kondisi perairan Kolam Putar" style="rounded=0;whiteSpace=wrap;html=1;align=left;" parent="1" vertex="1">
          <mxGeometry x="1342" y="-2127.5" width="120" height="60" as="geometry" />
        </mxCell>
        <mxCell id="v9qTnyX4O629vSzhhKhX-86" style="edgeStyle=orthogonalEdgeStyle;rounded=0;orthogonalLoop=1;jettySize=auto;html=1;exitX=1;exitY=0.5;exitDx=0;exitDy=0;entryX=0;entryY=0.5;entryDx=0;entryDy=0;fontColor=#000000;" parent="1" source="v9qTnyX4O629vSzhhKhX-83" target="v9qTnyX4O629vSzhhKhX-84" edge="1">
          <mxGeometry relative="1" as="geometry" />
        </mxCell>
        <mxCell id="v9qTnyX4O629vSzhhKhX-83" value="Kondisi perairan Kolam Putar" style="rounded=0;whiteSpace=wrap;html=1;align=left;" parent="1" vertex="1">
          <mxGeometry x="1342" y="-1875" width="120" height="60" as="geometry" />
        </mxCell>
        <mxCell id="v9qTnyX4O629vSzhhKhX-90" style="edgeStyle=orthogonalEdgeStyle;rounded=0;orthogonalLoop=1;jettySize=auto;html=1;exitX=1;exitY=0.5;exitDx=0;exitDy=0;entryX=0;entryY=0.5;entryDx=0;entryDy=0;fontColor=#000000;" parent="1" source="v9qTnyX4O629vSzhhKhX-84" target="v9qTnyX4O629vSzhhKhX-87" edge="1">
          <mxGeometry relative="1" as="geometry" />
        </mxCell>
        <mxCell id="v9qTnyX4O629vSzhhKhX-92" style="edgeStyle=orthogonalEdgeStyle;rounded=0;orthogonalLoop=1;jettySize=auto;html=1;exitX=1;exitY=0.5;exitDx=0;exitDy=0;entryX=0;entryY=0.5;entryDx=0;entryDy=0;fontColor=#000000;" parent="1" source="v9qTnyX4O629vSzhhKhX-84" target="v9qTnyX4O629vSzhhKhX-91" edge="1">
          <mxGeometry relative="1" as="geometry" />
        </mxCell>
        <mxCell id="v9qTnyX4O629vSzhhKhX-84" value="Sistem Berlabuh di Kolam Dermaga" style="rounded=0;whiteSpace=wrap;html=1;align=left;" parent="1" vertex="1">
          <mxGeometry x="1517" y="-1875" width="120" height="60" as="geometry" />
        </mxCell>
        <mxCell id="v9qTnyX4O629vSzhhKhX-87" value="Area Kolam Putar" style="rounded=0;whiteSpace=wrap;html=1;" parent="1" vertex="1">
          <mxGeometry x="1692" y="-1815" width="120" height="60" as="geometry" />
        </mxCell>
        <mxCell id="v9qTnyX4O629vSzhhKhX-88" value="Di bantu oleh kapal pandu dan tunda (&lt;i&gt;tugboats)&lt;/i&gt;" style="text;html=1;strokeColor=none;fillColor=none;align=left;verticalAlign=middle;whiteSpace=wrap;rounded=0;fontColor=#000000;" parent="1" vertex="1">
          <mxGeometry x="1517" y="-1815" width="140" height="62.5" as="geometry" />
        </mxCell>
        <mxCell id="v9qTnyX4O629vSzhhKhX-89" value="Ruang kolam terbatas." style="text;html=1;strokeColor=none;fillColor=none;align=left;verticalAlign=middle;whiteSpace=wrap;rounded=0;fontColor=#000000;" parent="1" vertex="1">
          <mxGeometry x="1342" y="-1815" width="140" height="20" as="geometry" />
        </mxCell>
        <mxCell id="v9qTnyX4O629vSzhhKhX-91" value="Kedalaman Kolam Putar" style="rounded=0;whiteSpace=wrap;html=1;" parent="1" vertex="1">
          <mxGeometry x="1692" y="-1744" width="120" height="60" as="geometry" />
        </mxCell>
        <mxCell id="v9qTnyX4O629vSzhhKhX-103" style="edgeStyle=orthogonalEdgeStyle;rounded=1;orthogonalLoop=1;jettySize=auto;html=1;exitX=1;exitY=0.5;exitDx=0;exitDy=0;entryX=0.5;entryY=0;entryDx=0;entryDy=0;fontColor=#000000;dashed=1;" parent="1" source="v9qTnyX4O629vSzhhKhX-98" target="v9qTnyX4O629vSzhhKhX-2" edge="1">
          <mxGeometry relative="1" as="geometry" />
        </mxCell>
        <mxCell id="v9qTnyX4O629vSzhhKhX-98" value="Peta Bathymetri perairan dermaga" style="shape=parallelogram;perimeter=parallelogramPerimeter;whiteSpace=wrap;html=1;fixedSize=1;fontColor=#000000;" parent="1" vertex="1">
          <mxGeometry x="777" y="-2977" width="120" height="60" as="geometry" />
        </mxCell>
        <mxCell id="v9qTnyX4O629vSzhhKhX-101" style="edgeStyle=orthogonalEdgeStyle;rounded=0;orthogonalLoop=1;jettySize=auto;html=1;exitX=1;exitY=0.5;exitDx=0;exitDy=0;entryX=0;entryY=0.5;entryDx=0;entryDy=0;fontColor=#000000;" parent="1" source="v9qTnyX4O629vSzhhKhX-99" target="v9qTnyX4O629vSzhhKhX-98" edge="1">
          <mxGeometry relative="1" as="geometry" />
        </mxCell>
        <mxCell id="v9qTnyX4O629vSzhhKhX-99" value="Lokasi Dermaga" style="rounded=0;whiteSpace=wrap;html=1;" parent="1" vertex="1">
          <mxGeometry x="615" y="-3037" width="120" height="60" as="geometry" />
        </mxCell>
        <mxCell id="v9qTnyX4O629vSzhhKhX-102" value="Koordinat Lokasi" style="text;html=1;strokeColor=none;fillColor=none;align=left;verticalAlign=middle;whiteSpace=wrap;rounded=0;" parent="1" vertex="1">
          <mxGeometry x="615" y="-2977" width="280" height="30" as="geometry" />
        </mxCell>
        <mxCell id="Ws4u6goq_V8mnw8VZYxV-2" style="edgeStyle=orthogonalEdgeStyle;rounded=0;orthogonalLoop=1;jettySize=auto;html=1;exitX=0;exitY=0.5;exitDx=0;exitDy=0;entryX=0.5;entryY=0;entryDx=0;entryDy=0;strokeWidth=2;strokeColor=#80FF00;dashed=1;" edge="1" parent="1" source="Ws4u6goq_V8mnw8VZYxV-1" target="v9qTnyX4O629vSzhhKhX-2">
          <mxGeometry relative="1" as="geometry" />
        </mxCell>
        <mxCell id="Ws4u6goq_V8mnw8VZYxV-1" value="BS 6349-1:2000" style="shape=document;whiteSpace=wrap;html=1;boundedLbl=1;fillColor=#d5e8d4;strokeColor=#82b366;" vertex="1" parent="1">
          <mxGeometry x="1100" y="-2917" width="120" height="80" as="geometry" />
        </mxCell>
        <mxCell id="Ws4u6goq_V8mnw8VZYxV-4" style="edgeStyle=orthogonalEdgeStyle;rounded=0;orthogonalLoop=1;jettySize=auto;html=1;exitX=0;exitY=0.5;exitDx=0;exitDy=0;entryX=0.25;entryY=0;entryDx=0;entryDy=0;strokeColor=#80FF00;strokeWidth=2;" edge="1" parent="1" source="Ws4u6goq_V8mnw8VZYxV-3" target="v9qTnyX4O629vSzhhKhX-40">
          <mxGeometry relative="1" as="geometry" />
        </mxCell>
        <mxCell id="Ws4u6goq_V8mnw8VZYxV-3" value="PIANC 2014" style="shape=document;whiteSpace=wrap;html=1;boundedLbl=1;fillColor=#d5e8d4;strokeColor=#82b366;" vertex="1" parent="1">
          <mxGeometry x="752" y="-2760" width="120" height="80" as="geometry" />
        </mxCell>
        <mxCell id="Ws4u6goq_V8mnw8VZYxV-6" style="edgeStyle=orthogonalEdgeStyle;rounded=0;orthogonalLoop=1;jettySize=auto;html=1;entryX=0.75;entryY=0;entryDx=0;entryDy=0;strokeColor=#80FF00;strokeWidth=2;exitX=0;exitY=0.5;exitDx=0;exitDy=0;dashed=1;" edge="1" parent="1" source="Ws4u6goq_V8mnw8VZYxV-5" target="v9qTnyX4O629vSzhhKhX-102">
          <mxGeometry relative="1" as="geometry" />
        </mxCell>
        <mxCell id="Ws4u6goq_V8mnw8VZYxV-5" value="Pushidrosal TNI AL" style="shape=document;whiteSpace=wrap;html=1;boundedLbl=1;fillColor=#d5e8d4;strokeColor=#82b366;" vertex="1" parent="1">
          <mxGeometry x="872" y="-3086" width="120" height="80" as="geometry" />
        </mxCell>
        <mxCell id="Ws4u6goq_V8mnw8VZYxV-8" style="edgeStyle=orthogonalEdgeStyle;rounded=0;orthogonalLoop=1;jettySize=auto;html=1;exitX=0;exitY=0.5;exitDx=0;exitDy=0;entryX=0.25;entryY=1;entryDx=0;entryDy=0;strokeColor=#80FF00;strokeWidth=2;" edge="1" parent="1" source="Ws4u6goq_V8mnw8VZYxV-7" target="v9qTnyX4O629vSzhhKhX-43">
          <mxGeometry relative="1" as="geometry" />
        </mxCell>
        <mxCell id="Ws4u6goq_V8mnw8VZYxV-7" value="BPPU-ITS 2019" style="shape=document;whiteSpace=wrap;html=1;boundedLbl=1;fillColor=#d5e8d4;strokeColor=#82b366;" vertex="1" parent="1">
          <mxGeometry x="735" y="-2267.5" width="120" height="80" as="geometry" />
        </mxCell>
        <mxCell id="Ws4u6goq_V8mnw8VZYxV-17" style="edgeStyle=orthogonalEdgeStyle;rounded=0;orthogonalLoop=1;jettySize=auto;html=1;exitX=1;exitY=0.5;exitDx=0;exitDy=0;entryX=0;entryY=0.5;entryDx=0;entryDy=0;strokeColor=#000000;strokeWidth=1;" edge="1" parent="1" source="Ws4u6goq_V8mnw8VZYxV-9" target="Ws4u6goq_V8mnw8VZYxV-11">
          <mxGeometry relative="1" as="geometry" />
        </mxCell>
        <mxCell id="Ws4u6goq_V8mnw8VZYxV-9" value="Fender" style="rounded=0;whiteSpace=wrap;html=1;" vertex="1" parent="1">
          <mxGeometry x="1167" y="-1624" width="120" height="60" as="geometry" />
        </mxCell>
        <mxCell id="Ws4u6goq_V8mnw8VZYxV-18" style="edgeStyle=orthogonalEdgeStyle;rounded=0;orthogonalLoop=1;jettySize=auto;html=1;exitX=1;exitY=0.5;exitDx=0;exitDy=0;entryX=0;entryY=0.5;entryDx=0;entryDy=0;strokeColor=#000000;strokeWidth=1;" edge="1" parent="1" source="Ws4u6goq_V8mnw8VZYxV-11" target="Ws4u6goq_V8mnw8VZYxV-15">
          <mxGeometry relative="1" as="geometry" />
        </mxCell>
        <mxCell id="Ws4u6goq_V8mnw8VZYxV-11" value="Konfigurasi Kapal berlabuh di dermaga" style="rounded=0;whiteSpace=wrap;html=1;" vertex="1" parent="1">
          <mxGeometry x="1342" y="-1564" width="120" height="60" as="geometry" />
        </mxCell>
        <mxCell id="Ws4u6goq_V8mnw8VZYxV-13" style="edgeStyle=orthogonalEdgeStyle;rounded=0;orthogonalLoop=1;jettySize=auto;html=1;exitX=0;exitY=0.5;exitDx=0;exitDy=0;entryX=0.5;entryY=0;entryDx=0;entryDy=0;strokeColor=#000000;strokeWidth=1;" edge="1" parent="1" source="Ws4u6goq_V8mnw8VZYxV-12" target="Ws4u6goq_V8mnw8VZYxV-9">
          <mxGeometry relative="1" as="geometry" />
        </mxCell>
        <mxCell id="Ws4u6goq_V8mnw8VZYxV-12" value="BS 6349-4:2014" style="shape=document;whiteSpace=wrap;html=1;boundedLbl=1;fillColor=#d5e8d4;strokeColor=#82b366;" vertex="1" parent="1">
          <mxGeometry x="1287" y="-1716" width="120" height="80" as="geometry" />
        </mxCell>
        <mxCell id="Ws4u6goq_V8mnw8VZYxV-23" style="edgeStyle=orthogonalEdgeStyle;rounded=0;orthogonalLoop=1;jettySize=auto;html=1;exitX=1;exitY=0.5;exitDx=0;exitDy=0;entryX=0;entryY=0.5;entryDx=0;entryDy=0;strokeColor=#000000;strokeWidth=1;" edge="1" parent="1" source="Ws4u6goq_V8mnw8VZYxV-15" target="Ws4u6goq_V8mnw8VZYxV-21">
          <mxGeometry relative="1" as="geometry" />
        </mxCell>
        <mxCell id="Ws4u6goq_V8mnw8VZYxV-24" style="edgeStyle=orthogonalEdgeStyle;rounded=0;orthogonalLoop=1;jettySize=auto;html=1;exitX=1;exitY=0.5;exitDx=0;exitDy=0;entryX=0;entryY=0.5;entryDx=0;entryDy=0;strokeColor=#000000;strokeWidth=1;" edge="1" parent="1" source="Ws4u6goq_V8mnw8VZYxV-15" target="Ws4u6goq_V8mnw8VZYxV-22">
          <mxGeometry relative="1" as="geometry" />
        </mxCell>
        <mxCell id="Ws4u6goq_V8mnw8VZYxV-15" value="Energi tumbukan kapal" style="rounded=0;whiteSpace=wrap;html=1;" vertex="1" parent="1">
          <mxGeometry x="1517" y="-1564" width="120" height="60" as="geometry" />
        </mxCell>
        <mxCell id="Ws4u6goq_V8mnw8VZYxV-21" value="Kondisi Normal" style="rounded=0;whiteSpace=wrap;html=1;" vertex="1" parent="1">
          <mxGeometry x="1692" y="-1508" width="120" height="60" as="geometry" />
        </mxCell>
        <mxCell id="Ws4u6goq_V8mnw8VZYxV-30" style="edgeStyle=orthogonalEdgeStyle;rounded=0;orthogonalLoop=1;jettySize=auto;html=1;exitX=1;exitY=0.5;exitDx=0;exitDy=0;strokeColor=#000000;strokeWidth=1;" edge="1" parent="1" source="Ws4u6goq_V8mnw8VZYxV-22" target="Ws4u6goq_V8mnw8VZYxV-29">
          <mxGeometry relative="1" as="geometry" />
        </mxCell>
        <mxCell id="Ws4u6goq_V8mnw8VZYxV-22" value="Kondisi Abnormal" style="rounded=0;whiteSpace=wrap;html=1;" vertex="1" parent="1">
          <mxGeometry x="1692" y="-1388" width="120" height="60" as="geometry" />
        </mxCell>
        <mxCell id="Ws4u6goq_V8mnw8VZYxV-25" value="tidak saat operasi bongkar - muat muatan" style="text;html=1;strokeColor=none;fillColor=none;align=left;verticalAlign=middle;whiteSpace=wrap;rounded=0;" vertex="1" parent="1">
          <mxGeometry x="1692" y="-1448" width="129" height="30" as="geometry" />
        </mxCell>
        <mxCell id="Ws4u6goq_V8mnw8VZYxV-28" value="saat operasi bongkar - muat muatan" style="text;html=1;strokeColor=none;fillColor=none;align=left;verticalAlign=middle;whiteSpace=wrap;rounded=0;" vertex="1" parent="1">
          <mxGeometry x="1692" y="-1328" width="129" height="30" as="geometry" />
        </mxCell>
        <mxCell id="Ws4u6goq_V8mnw8VZYxV-34" style="edgeStyle=orthogonalEdgeStyle;rounded=0;orthogonalLoop=1;jettySize=auto;html=1;exitX=1;exitY=0.5;exitDx=0;exitDy=0;entryX=0;entryY=0.5;entryDx=0;entryDy=0;strokeColor=#000000;strokeWidth=1;" edge="1" parent="1" source="Ws4u6goq_V8mnw8VZYxV-29" target="Ws4u6goq_V8mnw8VZYxV-31">
          <mxGeometry relative="1" as="geometry" />
        </mxCell>
        <mxCell id="Ws4u6goq_V8mnw8VZYxV-29" value="Energi Fender" style="rounded=0;whiteSpace=wrap;html=1;" vertex="1" parent="1">
          <mxGeometry x="1871" y="-1388" width="120" height="60" as="geometry" />
        </mxCell>
        <mxCell id="Ws4u6goq_V8mnw8VZYxV-35" style="edgeStyle=orthogonalEdgeStyle;rounded=0;orthogonalLoop=1;jettySize=auto;html=1;exitX=0.5;exitY=1;exitDx=0;exitDy=0;entryX=0.5;entryY=0;entryDx=0;entryDy=0;strokeColor=#000000;strokeWidth=1;" edge="1" parent="1" source="Ws4u6goq_V8mnw8VZYxV-31" target="Ws4u6goq_V8mnw8VZYxV-32">
          <mxGeometry relative="1" as="geometry" />
        </mxCell>
        <mxCell id="Ws4u6goq_V8mnw8VZYxV-31" value="Pemilihan Tipe Fender" style="rounded=0;whiteSpace=wrap;html=1;" vertex="1" parent="1">
          <mxGeometry x="2041" y="-1328" width="120" height="60" as="geometry" />
        </mxCell>
        <mxCell id="Ws4u6goq_V8mnw8VZYxV-36" style="edgeStyle=orthogonalEdgeStyle;rounded=0;orthogonalLoop=1;jettySize=auto;html=1;exitX=0.5;exitY=1;exitDx=0;exitDy=0;entryX=0.5;entryY=0;entryDx=0;entryDy=0;strokeColor=#000000;strokeWidth=1;" edge="1" parent="1" source="Ws4u6goq_V8mnw8VZYxV-32" target="Ws4u6goq_V8mnw8VZYxV-33">
          <mxGeometry relative="1" as="geometry" />
        </mxCell>
        <mxCell id="Ws4u6goq_V8mnw8VZYxV-32" value="Kebutuhan jumlah fender" style="rounded=0;whiteSpace=wrap;html=1;" vertex="1" parent="1">
          <mxGeometry x="2041" y="-1247" width="120" height="60" as="geometry" />
        </mxCell>
        <mxCell id="Ws4u6goq_V8mnw8VZYxV-33" value="Pemasangan Fender" style="rounded=0;whiteSpace=wrap;html=1;" vertex="1" parent="1">
          <mxGeometry x="2041" y="-1166" width="120" height="60" as="geometry" />
        </mxCell>
        <mxCell id="Ws4u6goq_V8mnw8VZYxV-38" style="edgeStyle=orthogonalEdgeStyle;rounded=0;orthogonalLoop=1;jettySize=auto;html=1;entryX=0.5;entryY=0;entryDx=0;entryDy=0;strokeColor=#000000;strokeWidth=1;exitX=0;exitY=0.5;exitDx=0;exitDy=0;" edge="1" parent="1" source="Ws4u6goq_V8mnw8VZYxV-37" target="Ws4u6goq_V8mnw8VZYxV-31">
          <mxGeometry relative="1" as="geometry" />
        </mxCell>
        <mxCell id="Ws4u6goq_V8mnw8VZYxV-37" value="Katalog Trelleborg" style="shape=document;whiteSpace=wrap;html=1;boundedLbl=1;fillColor=#d5e8d4;strokeColor=#82b366;" vertex="1" parent="1">
          <mxGeometry x="2161" y="-1429" width="120" height="80" as="geometry" />
        </mxCell>
        <mxCell id="Ws4u6goq_V8mnw8VZYxV-51" style="edgeStyle=orthogonalEdgeStyle;rounded=0;orthogonalLoop=1;jettySize=auto;html=1;exitX=1;exitY=0.5;exitDx=0;exitDy=0;entryX=0;entryY=0.5;entryDx=0;entryDy=0;strokeColor=#000000;strokeWidth=1;" edge="1" parent="1" source="Ws4u6goq_V8mnw8VZYxV-39" target="Ws4u6goq_V8mnw8VZYxV-45">
          <mxGeometry relative="1" as="geometry" />
        </mxCell>
        <mxCell id="Ws4u6goq_V8mnw8VZYxV-39" value="Bollard" style="rounded=0;whiteSpace=wrap;html=1;" vertex="1" parent="1">
          <mxGeometry x="1167" y="-1106" width="120" height="60" as="geometry" />
        </mxCell>
        <mxCell id="Ws4u6goq_V8mnw8VZYxV-43" style="edgeStyle=orthogonalEdgeStyle;rounded=0;orthogonalLoop=1;jettySize=auto;html=1;exitX=0;exitY=0.5;exitDx=0;exitDy=0;strokeColor=#80FF00;strokeWidth=1;dashed=1;" edge="1" parent="1" source="Ws4u6goq_V8mnw8VZYxV-41" target="Ws4u6goq_V8mnw8VZYxV-39">
          <mxGeometry relative="1" as="geometry" />
        </mxCell>
        <mxCell id="Ws4u6goq_V8mnw8VZYxV-41" value="BS 6349-4:2014" style="shape=document;whiteSpace=wrap;html=1;boundedLbl=1;fillColor=#d5e8d4;strokeColor=#82b366;" vertex="1" parent="1">
          <mxGeometry x="1287" y="-1304" width="120" height="80" as="geometry" />
        </mxCell>
        <mxCell id="Ws4u6goq_V8mnw8VZYxV-44" style="edgeStyle=orthogonalEdgeStyle;rounded=0;orthogonalLoop=1;jettySize=auto;html=1;exitX=0;exitY=0.5;exitDx=0;exitDy=0;strokeColor=#80FF00;strokeWidth=1;dashed=1;" edge="1" parent="1" source="Ws4u6goq_V8mnw8VZYxV-42">
          <mxGeometry relative="1" as="geometry">
            <mxPoint x="1227.095238095238" y="-1105.9523809523812" as="targetPoint" />
          </mxGeometry>
        </mxCell>
        <mxCell id="Ws4u6goq_V8mnw8VZYxV-42" value="BS 6349-1:2002" style="shape=document;whiteSpace=wrap;html=1;boundedLbl=1;fillColor=#d5e8d4;strokeColor=#82b366;" vertex="1" parent="1">
          <mxGeometry x="1287" y="-1217" width="120" height="80" as="geometry" />
        </mxCell>
        <mxCell id="Ws4u6goq_V8mnw8VZYxV-52" style="edgeStyle=orthogonalEdgeStyle;rounded=0;orthogonalLoop=1;jettySize=auto;html=1;exitX=1;exitY=0.5;exitDx=0;exitDy=0;entryX=0;entryY=0.5;entryDx=0;entryDy=0;strokeColor=#000000;strokeWidth=1;" edge="1" parent="1" source="Ws4u6goq_V8mnw8VZYxV-45" target="Ws4u6goq_V8mnw8VZYxV-46">
          <mxGeometry relative="1" as="geometry" />
        </mxCell>
        <mxCell id="Ws4u6goq_V8mnw8VZYxV-45" value="Konfigurasi Kapal bertambat di dermaga" style="rounded=0;whiteSpace=wrap;html=1;" vertex="1" parent="1">
          <mxGeometry x="1342" y="-1046" width="120" height="60" as="geometry" />
        </mxCell>
        <mxCell id="Ws4u6goq_V8mnw8VZYxV-49" style="edgeStyle=orthogonalEdgeStyle;rounded=0;orthogonalLoop=1;jettySize=auto;html=1;exitX=1;exitY=0.5;exitDx=0;exitDy=0;entryX=0;entryY=0.5;entryDx=0;entryDy=0;strokeColor=#000000;strokeWidth=1;" edge="1" parent="1" source="Ws4u6goq_V8mnw8VZYxV-46" target="Ws4u6goq_V8mnw8VZYxV-47">
          <mxGeometry relative="1" as="geometry" />
        </mxCell>
        <mxCell id="Ws4u6goq_V8mnw8VZYxV-50" style="edgeStyle=orthogonalEdgeStyle;rounded=0;orthogonalLoop=1;jettySize=auto;html=1;exitX=1;exitY=0.5;exitDx=0;exitDy=0;entryX=0;entryY=0.5;entryDx=0;entryDy=0;strokeColor=#000000;strokeWidth=1;" edge="1" parent="1" source="Ws4u6goq_V8mnw8VZYxV-46" target="Ws4u6goq_V8mnw8VZYxV-48">
          <mxGeometry relative="1" as="geometry" />
        </mxCell>
        <mxCell id="Ws4u6goq_V8mnw8VZYxV-46" value="Energi Tarik Kapal" style="rounded=0;whiteSpace=wrap;html=1;" vertex="1" parent="1">
          <mxGeometry x="1517" y="-1046" width="120" height="60" as="geometry" />
        </mxCell>
        <mxCell id="Ws4u6goq_V8mnw8VZYxV-47" value="Gaya Angin pada Kapal" style="rounded=0;whiteSpace=wrap;html=1;" vertex="1" parent="1">
          <mxGeometry x="1677" y="-972" width="120" height="60" as="geometry" />
        </mxCell>
        <mxCell id="Ws4u6goq_V8mnw8VZYxV-48" value="Gaya Arus pada Kapal" style="rounded=0;whiteSpace=wrap;html=1;" vertex="1" parent="1">
          <mxGeometry x="1677" y="-896" width="120" height="60" as="geometry" />
        </mxCell>
      </root>
    </mxGraphModel>
  </diagram>
</mxfile>
